<?xml version="1.0" standalone="no"?><!DOCTYPE svg PUBLIC "-//W3C//DTD SVG 1.1//EN" "http://www.w3.org/Graphics/SVG/1.1/DTD/svg11.dtd"><svg t="1633749928651" class="icon" viewBox="0 0 1024 1024" version="1.1" xmlns="http://www.w3.org/2000/svg" p-id="3983" xmlns:xlink="http://www.w3.org/1999/xlink" width="200" height="200"><defs><style type="text/css"></style></defs><path d="M755.9 267.65h-113.85c-12.6 0-22.5-9.9-22.5-22.5s9.9-22.5 22.5-22.5h113.85c12.6 0 22.5 9.9 22.5 22.5s-9.9 22.5-22.5 22.5zM755.9 352.7h-113.85c-12.6 0-22.5-9.9-22.5-22.5s9.9-22.5 22.5-22.5h113.85c12.6 0 22.5 9.9 22.5 22.5s-9.9 22.5-22.5 22.5zM474.2 909.35H180.35c-31.95 0-58.05-26.1-58.05-58.05v-675c0-31.95 26.1-58.05 58.05-58.05h294.3c31.95 0 58.05 26.1 58.05 58.05v675c-0.45 31.95-26.55 58.05-58.5 58.05zM180.35 163.7c-7.2 0-13.05 5.85-13.05 13.05v675c0 7.2 5.85 13.05 13.05 13.05h294.3c7.2 0 13.05-5.85 13.05-13.05v-675c0-7.2-5.85-13.05-13.05-13.05H180.35z" fill="#ffffff" p-id="3984"></path><path d="M845.9 909.35h-294.3c-31.95 0-58.05-26.1-58.05-58.05v-675c0-31.95 26.1-58.05 58.05-58.05h294.3c31.95 0 58.05 26.1 58.05 58.05v675c0 31.95-26.1 58.05-58.05 58.05zM552.05 163.7c-7.2 0-13.05 5.85-13.05 13.05v675c0 7.2 5.85 13.05 13.05 13.05h294.3c7.2 0 13.05-5.85 13.05-13.05v-675c0-7.2-5.85-13.05-13.05-13.05h-294.3z" fill="#ffffff" p-id="3985"></path></svg>