<?xml version="1.0" standalone="no"?><!DOCTYPE svg PUBLIC "-//W3C//DTD SVG 1.1//EN" "http://www.w3.org/Graphics/SVG/1.1/DTD/svg11.dtd"><svg t="1629209328124" class="icon" viewBox="0 0 1024 1024" version="1.1" xmlns="http://www.w3.org/2000/svg" p-id="1357" xmlns:xlink="http://www.w3.org/1999/xlink" width="200" height="200"><defs><style type="text/css"></style></defs><path d="M512 511.999624h-0.028599c-123.699122-0.015428-223.971166-100.297256-223.971166-223.999389 0-123.711916 100.288225-223.999012 223.999765-223.999012 123.711916 0 224.000141 100.288225 224.000141 223.999012 0 59.836752-23.462825 114.191244-61.687753 154.370279-2.941132 2.901244-4.765416 6.931754-4.765416 11.390112 0 8.835813 7.163552 16.000118 16.000117 16.000117 4.413579 0 8.408717-1.786655 11.302811-4.675857l0.008655 0.008278c44.065046-45.983405 71.142197-108.375961 71.142198-177.092553 0-141.385423-114.61533-255.999624-256.000753-255.999623-141.38467 0-255.999247 114.614953-255.999247 255.999623 0 104.702557 62.857659 194.721657 152.894068 234.385166C175.545222 570.096758 0 776.548322 0 1024h32.000235c0-265.09621 214.903555-479.999765 479.999765-479.999765 265.097339 0 480.000517 214.903555 480.000517 479.999765h31.999859c0-282.769717-229.230659-512.000376-512.000376-512.000376z" fill="#ffffff" p-id="1358"></path></svg>